# xmcd
#
# Track frame offsets: 
#        150
#        19317
#        31312
#        51272
#        65785
#        88572
#        106482
#        128472
#        148150
#
# Disc length: 2332 seconds
#
# Revision: 3
# Processed by: cddbd v1.5.2PL0 Copyright (c) Steve Scherf et al.
# Submitted via: ExactAudioCopy v0.99pb5
#
DISCID=7d091a09
DTITLE=John Mayall - [Bluesbreaker]
DYEAR=1997
DGENRE=Blues-Rock
TTITLE0=John Lee Boogie
TTITLE1=Lost and Gone
TTITLE2=Road Show
TTITLE3=Why Worry
TTITLE4=Baby What You Want Me To Do
TTITLE5=Mama, Talk To Your Daughter
TTITLE6=A Big Man
TTITLE7=Reaching For a Mountain
TTITLE8=Mexico City
EXTD=
EXTT0=
EXTT1=
EXTT2=
EXTT3=
EXTT4=
EXTT5=
EXTT6=
EXTT7=
EXTT8=
PLAYORDER=
